<svg width="184" height="56" viewBox="0 0 184 56" fill="none" xmlns="http://www.w3.org/2000/svg">
<g id="Group 1000002843">
<path id="Vector" d="M86.0419 0.279978C68.5023 4.42162 59.8296 9.82309 58.9437 10.39L64.2081 27.8463C68.4432 30.7439 85.0042 37.3658 86.0419 37.7753C87.0796 37.3658 103.649 30.7439 107.876 27.8463L113.14 10.39C112.254 9.82309 103.581 4.42162 86.0419 0.279978ZM58.7159 10.2404C58.7159 10.2404 67.4393 4.42162 86.0165 0.0358887H86.084C104.661 4.42162 113.351 10.2247 113.376 10.2404L113.452 10.2876L113.427 10.3743L108.129 27.9566L108.078 28.0196C103.742 31.0116 86.1515 38.0036 86.1009 38.0272L86.0503 38.0508L85.9997 38.0272C85.9491 38.0036 68.3504 31.0116 64.0225 28.0196L63.9719 27.9566L58.6737 10.3743L58.6484 10.2876L58.7244 10.2404H58.7159Z" fill="#000001"/>
<path id="Vector_2" fill-rule="evenodd" clip-rule="evenodd" d="M95.5392 25.8191V15.465L87.7775 23.4019H83.6858L75.9242 15.465V25.8191L69.6474 28.6222V8.18171H76.7426L81.737 14.9847L85.7359 19.2602L89.7348 14.9847L94.7292 8.18171H101.824V28.6143L95.5392 25.8113V25.8191ZM61.0169 11.2368C61.0169 11.2368 68.905 5.96915 85.7275 2.00073C102.55 5.96915 110.438 11.2368 110.438 11.2368L105.629 27.1813C101.715 29.882 85.719 36.2441 85.719 36.2441C85.719 36.2441 69.7318 29.8899 65.8088 27.1813L61 11.2368H61.0169Z" fill="#FFD400"/>
<path id="Vector_3" d="M85.8898 2.28877C70.0291 6.03672 62.1663 10.9185 61.3311 11.4539L66.0977 27.2725C69.9363 29.8945 84.9112 35.8786 85.8898 36.2723C86.8684 35.8786 101.843 29.8945 105.682 27.2725L110.449 11.4539C109.613 10.9185 101.75 6.03672 85.8898 2.28877ZM61.1033 11.3043C61.1033 11.3043 69.0083 6.02097 85.8645 2.04468H85.932C102.78 6.02097 110.668 11.2886 110.693 11.3043L110.769 11.3516L110.744 11.4303L105.935 27.3749L105.884 27.4379C101.953 30.1465 85.9995 36.4928 85.9489 36.5085L85.8982 36.5243L85.8476 36.5085C85.8054 36.4928 69.8435 30.1465 65.9121 27.4379L65.8615 27.3749L61.0527 11.4303L61.0273 11.3516L61.1033 11.3043Z" fill="#000001"/>
<path id="Vector_4" d="M0 29.2244H5.38251L23.5042 51.0664L41.533 29.2244H46.4769V55.964H40.9256V37.3896L25.6217 55.964H20.8973L5.55124 37.4289V55.964H0V29.2244Z" fill="black"/>
<path id="Vector_5" d="M116.584 40.9647H119.816V55.9643H116.584V40.9647ZM93.4767 40.9647H114.416V43.1772H105.684V55.9643H102.453V43.1772H93.4767V40.9647ZM74.7982 40.9647H78.0294V53.7518H91.9159V55.9643H74.7982V40.9647ZM66.0158 53.7518C67.9308 53.7518 68.8842 53.2085 68.8842 52.1298V40.9647H72.1154V52.1298C72.1154 54.6888 70.0822 55.9643 66.0073 55.9643H56.9127C52.8463 55.9643 50.8047 54.673 50.8047 52.0825V40.9568H54.0359V52.0825C54.0359 53.1928 54.9892 53.7439 56.9043 53.7439H65.9989L66.0158 53.7518Z" fill="black"/>
<path id="Vector_6" d="M130.082 44.9485V55.964H124.32V29.2244H155.704V33.177H130.082V41.0036H153.975V44.9485H130.082Z" fill="black"/>
<path id="Vector_7" d="M163.061 40.9646H184.001V43.1772H175.269V55.9643H172.038V43.1772H163.061V40.9646ZM157.586 40.9646H160.817V55.9643H157.586V40.9646Z" fill="black"/>
<path id="Vector_8" d="M85.9947 20.1467L81.9958 15.8633L77.0014 9.0603H76.9761H69.9062V26.6977V29.493L76.1915 26.6977V16.3436L83.9531 24.2805H83.9868H88.011H88.0448L95.8064 16.3436V26.6977L102.092 29.493V26.6977V9.0603H95.0218H94.9881L89.9936 15.8633L85.9947 20.1467Z" fill="#000001"/>
<path id="Vector_9" d="M113.087 10.643C112.201 10.0761 103.528 4.67461 85.9888 0.532959C68.4492 4.67461 59.7765 10.0761 58.8906 10.643L64.155 28.0993C68.3902 30.9969 84.9511 37.6188 85.9888 38.0282C87.0265 37.6188 103.596 30.9969 107.823 28.0993L113.087 10.643ZM86.0225 2.04474C102.87 6.02103 110.758 11.2886 110.784 11.3044L110.86 11.3516L110.834 11.4382L106.026 27.3828L105.975 27.4458C102.043 30.1544 86.09 36.5007 86.0394 36.5165L85.9888 36.5322L85.9381 36.5165C85.896 36.5007 69.934 30.1544 66.0026 27.4458L65.952 27.3828L61.1432 11.4382L61.1179 11.3516L61.1938 11.3044C61.1938 11.3044 69.0988 6.02103 85.955 2.04474H86.0225Z" fill="#000001"/>
</g>
</svg>
