<svg width="184" height="56" viewBox="0 0 184 56" fill="none" xmlns="http://www.w3.org/2000/svg">
<g id="Group 1000002843">
<path id="Vector" d="M86.0419 0.244089C68.5023 4.38574 59.8296 9.7872 58.9437 10.3541L64.2081 27.8104C68.4432 30.708 85.0042 37.3299 86.0419 37.7394C87.0796 37.3299 103.649 30.708 107.876 27.8104L113.14 10.3541C112.254 9.7872 103.581 4.38574 86.0419 0.244089ZM58.7159 10.2045C58.7159 10.2045 67.4393 4.38574 86.0165 0H86.084C104.661 4.38574 113.351 10.1888 113.376 10.2045L113.452 10.2518L113.427 10.3384L108.129 27.9207L108.078 27.9837C103.742 30.9757 86.1515 37.9677 86.1009 37.9913L86.0503 38.015L85.9997 37.9913C85.9491 37.9677 68.3504 30.9757 64.0225 27.9837L63.9719 27.9207L58.6737 10.3384L58.6484 10.2518L58.7244 10.2045H58.7159Z" fill="#000001"/>
<path id="Vector_2" fill-rule="evenodd" clip-rule="evenodd" d="M95.8009 27.1954V16.8412L88.0393 24.7781H83.9476L76.1859 16.8412V27.1954L69.9092 29.9984V9.55793H77.0043L81.9987 16.3609L85.9976 20.6364L89.9965 16.3609L94.991 9.55793H102.086V29.9906L95.8009 27.1875V27.1954ZM61.2786 12.613C61.2786 12.613 69.1667 7.34537 85.9892 3.37695C102.812 7.34537 110.7 12.613 110.7 12.613L105.891 28.5575C101.976 31.2583 85.9808 37.6203 85.9808 37.6203C85.9808 37.6203 69.9935 31.2661 66.0705 28.5575L61.2617 12.613H61.2786Z" fill="#FFD400"/>
<path id="Vector_3" d="M85.8898 2.25288C70.0291 6.00083 62.1663 10.8826 61.3311 11.418L66.0977 27.2366C69.9363 29.8586 84.9112 35.8427 85.8898 36.2364C86.8684 35.8427 101.843 29.8586 105.682 27.2366L110.449 11.418C109.613 10.8826 101.75 6.00083 85.8898 2.25288ZM61.1033 11.2684C61.1033 11.2684 69.0083 5.98509 85.8645 2.00879H85.932C102.78 5.98509 110.668 11.2527 110.693 11.2684L110.769 11.3157L110.744 11.3944L105.935 27.339L105.884 27.402C101.953 30.1106 85.9995 36.4569 85.9489 36.4726L85.8982 36.4884L85.8476 36.4726C85.8054 36.4569 69.8435 30.1106 65.9121 27.402L65.8615 27.339L61.0527 11.3944L61.0273 11.3157L61.1033 11.2684Z" fill="#000001"/>
<path id="Vector_4" d="M0 29.1885H5.38251L23.5042 51.0305L41.533 29.1885H46.4769V55.9281H40.9256V37.3537L25.6217 55.9281H20.8973L5.55124 37.393V55.9281H0V29.1885Z" fill="white"/>
<path id="Vector_5" d="M116.584 40.9288H119.816V55.9285H116.584V40.9288ZM93.4767 40.9288H114.416V43.1413H105.684V55.9285H102.453V43.1413H93.4767V40.9288ZM74.7982 40.9288H78.0294V53.7159H91.9159V55.9285H74.7982V40.9288ZM66.0158 53.7159C67.9308 53.7159 68.8842 53.1726 68.8842 52.0939V40.9288H72.1154V52.0939C72.1154 54.6529 70.0822 55.9285 66.0073 55.9285H56.9127C52.8463 55.9285 50.8047 54.6371 50.8047 52.0467V40.9209H54.0359V52.0467C54.0359 53.1569 54.9892 53.708 56.9043 53.708H65.9989L66.0158 53.7159Z" fill="white"/>
<path id="Vector_6" d="M130.082 44.9126V55.9281H124.32V29.1885H155.704V33.1412H130.082V40.9678H153.975V44.9126H130.082Z" fill="white"/>
<path id="Vector_7" d="M163.061 40.9287H184.001V43.1413H175.269V55.9284H172.038V43.1413H163.061V40.9287ZM157.586 40.9287H160.817V55.9284H157.586V40.9287Z" fill="white"/>
<path id="Vector_8" d="M85.9947 20.1108L81.9958 15.8274L77.0014 9.02441H76.9761H69.9062V26.6618V29.4571L76.1915 26.6618V16.3077L83.9531 24.2446H83.9868H88.011H88.0448L95.8064 16.3077V26.6618L102.092 29.4571V26.6618V9.02441H95.0218H94.9881L89.9936 15.8274L85.9947 20.1108Z" fill="#000001"/>
<path id="Vector_9" d="M113.087 10.6071C112.201 10.0402 103.528 4.63872 85.9888 0.49707C68.4492 4.63872 59.7765 10.0402 58.8906 10.6071L64.155 28.0634C68.3902 30.961 84.9511 37.5829 85.9888 37.9924C87.0265 37.5829 103.596 30.961 107.823 28.0634L113.087 10.6071ZM86.0225 2.00885C102.87 5.98515 110.758 11.2528 110.784 11.2685L110.86 11.3157L110.834 11.4024L106.026 27.3469L105.975 27.4099C102.043 30.1185 86.09 36.4648 86.0394 36.4806L85.9888 36.4963L85.9381 36.4806C85.896 36.4648 69.934 30.1185 66.0026 27.4099L65.952 27.3469L61.1432 11.4024L61.1179 11.3157L61.1938 11.2685C61.1938 11.2685 69.0988 5.98515 85.955 2.00885H86.0225Z" fill="#000001"/>
</g>
</svg>
